<?xml version="1.0" encoding="UTF-8" standalone="no"?>
<!-- Generator: Adobe Illustrator 19.0.0, SVG Export Plug-In . SVG Version: 6.00 Build 0)  -->

<svg
   xmlns:dc="http://purl.org/dc/elements/1.1/"
   xmlns:cc="http://creativecommons.org/ns#"
   xmlns:rdf="http://www.w3.org/1999/02/22-rdf-syntax-ns#"
   xmlns:svg="http://www.w3.org/2000/svg"
   xmlns="http://www.w3.org/2000/svg"
   xmlns:sodipodi="http://sodipodi.sourceforge.net/DTD/sodipodi-0.dtd"
   xmlns:inkscape="http://www.inkscape.org/namespaces/inkscape"
   version="1.1"
   x="0px"
   y="0px"
   viewBox="0 0 1920 1080"
   style="enable-background:new 0 0 1920 1080;"
   xml:space="preserve"
   id="svg2"
   inkscape:version="0.91 r13725"
   sodipodi:docname="Linuxmint.svg"><metadata
     id="metadata41"><rdf:RDF><cc:Work
         rdf:about=""><dc:format>image/svg+xml</dc:format><dc:type
           rdf:resource="http://purl.org/dc/dcmitype/StillImage" /></cc:Work></rdf:RDF></metadata><defs
     id="defs39" /><sodipodi:namedview
     pagecolor="#ffffff"
     bordercolor="#666666"
     borderopacity="1"
     objecttolerance="10"
     gridtolerance="10"
     guidetolerance="10"
     inkscape:pageopacity="0"
     inkscape:pageshadow="2"
     inkscape:window-width="1600"
     inkscape:window-height="837"
     id="namedview37"
     showgrid="false"
     inkscape:zoom="0.42868349"
     inkscape:cx="1066.0279"
     inkscape:cy="553.78497"
     inkscape:window-x="-8"
     inkscape:window-y="-8"
     inkscape:window-maximized="1"
     inkscape:current-layer="layer4" /><style
     type="text/css"
     id="style4">
	.st0{fill:#93A1A1;}
	.st1{display:none;}
	.st2{fill:#586E75;}
	.st3{fill:#073642;}
	.st4{display:inline;fill:#002B36;}
	.st5{display:inline;fill:#073642;}
	.st6{display:inline;fill:#586E75;}
	.st7{display:inline;fill:#657B83;}
	.st8{fill:#657B83;}
	.st9{fill:#002B36;}
</style><g
     id="bottom"
     class="st1"><path
       id="XMLID_43_"
       class="st2"
       d="M0,360.8V0h1920v640.8h-766.7v-145c0-74.6-60.4-135-135-135L0,360.8z" /><path
       id="XMLID_20_"
       class="st3"
       d="M0,302.4h1032.8c98.7,0,178.8,80,178.8,178.8v159.6H1920V0H0V302.4z" /><path
       id="XMLID_12_"
       class="st4"
       d="M1920,640.8H948.3c-41.4,0-75-33.6-75-75v-125H0V1080h1920V640.8z" /><path
       id="XMLID_14_"
       class="st5"
       d="M1920,660.8H943.3c-49.7,0-90-40.3-90-90v-130H0V1080h1920V660.8z" /><path
       id="XMLID_24_"
       class="st6"
       d="M1920,700.8V1080H0V440.8h813.3v140c0,66.3,53.7,120,120,120L1920,700.8z" /><path
       id="XMLID_25_"
       class="st7"
       d="M793.3,440.8H0V1080h1920V720.8l-991.7,0c-74.6,0-135-60.4-135-135L793.3,440.8z" /><path
       id="XMLID_15_"
       class="st4"
       d="M1920,740.8H923.3c-82.8,0-150-67.2-150-150v-150H0V1080h1920V740.8z" /><path
       id="XMLID_18_"
       class="st5"
       d="M1920,779.1H913.7c-98.7,0-178.8-80-178.8-178.8V440.8H0V1080h1920V779.1z" /><path
       id="XMLID_16_"
       class="st4"
       d="M1920,800.8H908.3c-107.7,0-195-87.3-195-195v-165H0V1080h1920V800.8z" /></g><g
     id="top"
     class="st1"><path
       id="XMLID_2_"
       class="st5"
       d="M0,440.8h998.3c41.4,0,75,33.6,75,75v125H1920V0H0V440.8z" /><path
       id="XMLID_13_"
       class="st8"
       d="M0,420.8h1003.3c49.7,0,90,40.3,90,90v130H1920V0H0V420.8z" /><path
       id="XMLID_22_"
       class="st4"
       d="M1113.3,640.8l806.7,0V0H0v400.8h1008.3c58,0,105,47,105,105V640.8" /><path
       id="XMLID_23_"
       class="st2"
       d="M0,340.8h1023.3c82.8,0,150,67.2,150,150v150H1920V0H0V340.8z" /><path
       id="XMLID_21_"
       class="st9"
       d="M0,280.8h1038.3c107.7,0,195,87.3,195,195v165H1920V0H0V280.8z" /></g><g
     inkscape:groupmode="layer"
     id="layer1"
     inkscape:label="bg"
     style="display:inline"><rect
       style="fill:#93a1a1"
       y="0"
       x="0"
       height="1080"
       width="1920"
       class="st0"
       id="XMLID_11_" /></g><g
     inkscape:groupmode="layer"
     id="layer4"
     inkscape:label="bottom"
     style="opacity:1"><path
       style="fill:#002b36"
       d="m 1920,640.8 -971.7,0 c -41.4,0 -75,-33.6 -75,-75 l 0,-125 -873.3,0 0,639.2 1920,0 0,-439.2 z"
       class="st9"
       id="XMLID_307_"
       inkscape:connector-curvature="0" /><path
       style="fill:#073642"
       d="m 913.7,779.1 c -98.7,0 -178.8,-80 -178.8,-178.8 l 0,-159.5 -21.7,0 0,165 c 0,107.7 87.3,195 195,195 l 1011.8,0 0,-21.7 -1006.3,0 z"
       class="st3"
       id="XMLID_225_"
       inkscape:connector-curvature="0" /><path
       style="fill:#073642"
       d="m 943.3,660.8 c -49.7,0 -90,-40.3 -90,-90 l 0,-130 -80,0 0,150 c 0,82.8 67.2,150 150,150 l 996.7,0 0,-80 -976.7,0 z"
       class="st3"
       id="XMLID_252_"
       inkscape:connector-curvature="0" /><path
       style="fill:#586e75"
       d="m 933.3,700.8 c -66.3,0 -120,-53.7 -120,-120 l 0,-140 -40,0 0,150 c 0,82.8 67.2,150 150,150 l 996.7,0 0,-40 -986.7,0 z"
       class="st2"
       id="XMLID_279_"
       inkscape:connector-curvature="0" /><path
       style="fill:#657b83"
       d="m 928.3,720.8 c -74.6,0 -135,-60.4 -135,-135 l 0,-145 -20,0 0,150 c 0,82.8 67.2,150 150,150 l 996.7,0 0,-20 -991.7,0 z"
       class="st8"
       id="XMLID_306_"
       inkscape:connector-curvature="0" /></g><g
     inkscape:groupmode="layer"
     id="layer3"
     inkscape:label="top"><path
       style="fill:#002b36"
       d="m 0,440.8 998.3,0 c 41.4,0 75,33.6 75,75 l 0,125 846.7,0 L 1920,0 0,0 0,440.8 Z"
       class="st9"
       id="XMLID_218_"
       inkscape:connector-curvature="0" /><path
       style="fill:#073642"
       d="m 1038.3,280.8 -1038.3,0 0,40 1028.3,0 c 91.1,0 165,73.9 165,165 l 0,155 40,0 0,-165 c 0,-107.7 -87.3,-195 -195,-195 z"
       class="st3"
       id="XMLID_95_"
       inkscape:connector-curvature="0" /><path
       style="fill:#073642"
       d="m 1038.3,280.8 -1038.3,0 0,60 1023.3,0 c 82.8,0 150,67.2 150,150 l 0,150 60,0 0,-165 c 0,-107.7 -87.3,-195 -195,-195 z"
       class="st3"
       id="XMLID_149_"
       inkscape:connector-curvature="0" /><path
       style="fill:#586e75"
       d="m 1028.3,320.8 -1028.3,0 0,20 1023.3,0 c 82.8,0 150,67.2 150,150 l 0,150 20,0 0,-155 c 0,-91.2 -73.9,-165 -165,-165 z"
       class="st2"
       id="XMLID_148_"
       inkscape:connector-curvature="0" /><path
       style="fill:#073642"
       d="m 1008.3,400.8 -1008.3,0 0,40 998.3,0 c 41.4,0 75,33.6 75,75 l 0,125 40,0 0,-135 c 0,-58 -47,-105 -105,-105 z"
       class="st3"
       id="XMLID_224_"
       inkscape:connector-curvature="0" /><path
       style="fill:#657b83"
       d="m 1008.3,400.8 -1008.3,0 0,20 1003.3,0 c 49.7,0 90,40.3 90,90 l 0,130 20,0 0,-135 c 0,-58 -47,-105 -105,-105 z"
       class="st8"
       id="XMLID_197_"
       inkscape:connector-curvature="0" /></g></svg>