<?xml version="1.0" encoding="UTF-8" standalone="no"?>
<!-- Generator: Adobe Illustrator 19.0.0, SVG Export Plug-In . SVG Version: 6.00 Build 0)  -->

<svg
   xmlns:dc="http://purl.org/dc/elements/1.1/"
   xmlns:cc="http://creativecommons.org/ns#"
   xmlns:rdf="http://www.w3.org/1999/02/22-rdf-syntax-ns#"
   xmlns:svg="http://www.w3.org/2000/svg"
   xmlns="http://www.w3.org/2000/svg"
   xmlns:sodipodi="http://sodipodi.sourceforge.net/DTD/sodipodi-0.dtd"
   xmlns:inkscape="http://www.inkscape.org/namespaces/inkscape"
   version="1.1"
   x="0px"
   y="0px"
   viewBox="0 0 1920 1080"
   style="enable-background:new 0 0 1920 1080;"
   xml:space="preserve"
   id="svg3336"
   inkscape:version="0.91 r13725"
   sodipodi:docname="Ubuntu.svg"><metadata
     id="metadata3361"><rdf:RDF><cc:Work
         rdf:about=""><dc:format>image/svg+xml</dc:format><dc:type
           rdf:resource="http://purl.org/dc/dcmitype/StillImage" /></cc:Work></rdf:RDF></metadata><defs
     id="defs3359" /><sodipodi:namedview
     pagecolor="#ffffff"
     bordercolor="#666666"
     borderopacity="1"
     objecttolerance="10"
     gridtolerance="10"
     guidetolerance="10"
     inkscape:pageopacity="0"
     inkscape:pageshadow="2"
     inkscape:window-width="1600"
     inkscape:window-height="837"
     id="namedview3357"
     showgrid="false"
     inkscape:zoom="0.62037037"
     inkscape:cx="848.82478"
     inkscape:cy="507.33154"
     inkscape:window-x="-8"
     inkscape:window-y="-8"
     inkscape:window-maximized="1"
     inkscape:current-layer="layer2" /><style
     type="text/css"
     id="style3338">
	.nor_x002D_brcyan{fill:#93A1A1;}
	.nor_x002D_brblue{fill:#839496;}
	.nor_x002D_brgreen{fill:#586E75;}
	.st0{fill:#93A1A1;}
	.st1{fill:#073642;}
</style><g
     inkscape:groupmode="layer"
     id="layer1"
     inkscape:label="bg"
     style="display:inline"><g
       id="bg"><rect
         y="0"
         x="0"
         id="XMLID_175_"
         class="st0"
         width="1920"
         height="1080"
         style="fill:#93a1a1" /></g></g><g
     inkscape:groupmode="layer"
     id="layer2"
     inkscape:label="geos"><circle
       style="fill:#073642"
       r="320"
       cy="540"
       cx="960"
       class="st1"
       id="XMLID_9_" /><path
       style="fill:#586e75"
       inkscape:connector-curvature="0"
       d="m 960,200 c -187.8,0 -340,152.2 -340,340 0,187.8 152.2,340 340,340 187.8,0 340,-152.2 340,-340 0,-187.8 -152.2,-340 -340,-340 z m 0,640 C 794.3,840 660,705.7 660,540 660,374.3 794.3,240 960,240 c 165.7,0 300,134.3 300,300 0,165.7 -134.3,300 -300,300 z"
       class="nor_x002D_brgreen"
       id="XMLID_4_" /><path
       style="fill:#586e75"
       inkscape:connector-curvature="0"
       d="m 960,300 c -132.5,0 -240,107.5 -240,240 0,132.5 107.5,240 240,240 132.5,0 240,-107.5 240,-240 0,-132.5 -107.5,-240 -240,-240 z m 0,380 c -77.3,0 -140,-62.7 -140,-140 0,-77.3 62.7,-140 140,-140 77.3,0 140,62.7 140,140 0,77.3 -62.7,140 -140,140 z"
       class="nor_x002D_brgreen"
       id="XMLID_381_" /><path
       style="fill:#839496"
       inkscape:connector-curvature="0"
       d="m 960,321.8 c -120.5,0 -218.2,97.7 -218.2,218.2 0,120.5 97.7,218.2 218.2,218.2 120.5,0 218.2,-97.7 218.2,-218.2 0,-120.5 -97.7,-218.2 -218.2,-218.2 z m 0,358.2 c -77.3,0 -140,-62.7 -140,-140 0,-77.3 62.7,-140 140,-140 77.3,0 140,62.7 140,140 0,77.3 -62.7,140 -140,140 z"
       class="nor_x002D_brblue"
       id="XMLID_7_" /><path
       style="fill:#93a1a1"
       inkscape:connector-curvature="0"
       d="m 960,343.6 c -108.4,0 -196.4,87.9 -196.4,196.4 0,108.5 88,196.4 196.4,196.4 108.4,0 196.4,-87.9 196.4,-196.4 0,-108.5 -88,-196.4 -196.4,-196.4 z m 0,336.4 c -77.3,0 -140,-62.7 -140,-140 0,-77.3 62.7,-140 140,-140 77.3,0 140,62.7 140,140 0,77.3 -62.7,140 -140,140 z"
       class="nor_x002D_brcyan"
       id="XMLID_10_" /><circle
       style="fill:#93a1a1"
       r="100"
       cy="540"
       cx="960"
       class="nor_x002D_brcyan"
       id="XMLID_5_" /><circle
       style="fill:#93a1a1"
       r="100"
       cy="540"
       cx="960"
       class="nor_x002D_brcyan"
       id="XMLID_144_" /><circle
       style="fill:#93a1a1"
       r="100"
       cy="540"
       cx="960"
       class="nor_x002D_brcyan"
       id="XMLID_145_" /><circle
       style="fill:#839496"
       r="80"
       cy="245"
       cx="1131"
       class="nor_x002D_brblue"
       id="XMLID_20_" /><circle
       style="fill:#839496"
       r="80"
       cy="835"
       cx="1131"
       class="nor_x002D_brblue"
       id="XMLID_21_" /><circle
       style="fill:#839496"
       r="80"
       cy="540"
       cx="620"
       class="nor_x002D_brblue"
       id="XMLID_22_" /><circle
       style="fill:#93a1a1"
       r="60"
       cy="540"
       cx="620"
       class="nor_x002D_brcyan"
       id="XMLID_23_" /><circle
       style="fill:#93a1a1"
       r="60"
       cy="245"
       cx="1131"
       class="nor_x002D_brcyan"
       id="XMLID_24_" /><circle
       style="fill:#93a1a1"
       r="60"
       cy="835"
       cx="1131"
       class="nor_x002D_brcyan"
       id="XMLID_25_" /></g></svg>